<?xml version="1.0" encoding="UTF-8"?>
<!DOCTYPE svg PUBLIC "-//W3C//DTD SVG 1.1//EN" "http://www.w3.org/Graphics/SVG/1.1/DTD/svg11.dtd">
<svg version="1.2" width="27.2mm" height="27.2mm" viewBox="0 0 2720 2720" preserveAspectRatio="xMidYMid" fill-rule="evenodd" stroke-width="28.222" stroke-linejoin="round" xmlns="http://www.w3.org/2000/svg" xmlns:ooo="http://xml.openoffice.org/svg/export" xmlns:xlink="http://www.w3.org/1999/xlink" xmlns:presentation="http://sun.com/xmlns/staroffice/presentation" xmlns:smil="http://www.w3.org/2001/SMIL20/" xmlns:anim="urn:oasis:names:tc:opendocument:xmlns:animation:1.0" xmlns:svg="urn:oasis:names:tc:opendocument:xmlns:svg-compatible:1.0" xml:space="preserve">
 <defs class="ClipPathGroup">
  <clipPath id="presentation_clip_path" clipPathUnits="userSpaceOnUse">
   <rect x="0" y="0" width="2720" height="2720"/>
  </clipPath>
  <clipPath id="presentation_clip_path_shrink" clipPathUnits="userSpaceOnUse">
   <rect x="2" y="2" width="2715" height="2715"/>
  </clipPath>
 </defs>
 <defs class="TextShapeIndex">
  <g ooo:slide="id1" ooo:id-list="id3"/>
 </defs>
 <defs class="EmbeddedBulletChars">
  <g id="bullet-char-template-57356" transform="scale(0.00048828125,-0.00048828125)">
   <path d="M 580,1141 L 1163,571 580,0 -4,571 580,1141 Z"/>
  </g>
  <g id="bullet-char-template-57354" transform="scale(0.00048828125,-0.00048828125)">
   <path d="M 8,1128 L 1137,1128 1137,0 8,0 8,1128 Z"/>
  </g>
  <g id="bullet-char-template-10146" transform="scale(0.00048828125,-0.00048828125)">
   <path d="M 174,0 L 602,739 174,1481 1456,739 174,0 Z M 1358,739 L 309,1346 659,739 1358,739 Z"/>
  </g>
  <g id="bullet-char-template-10132" transform="scale(0.00048828125,-0.00048828125)">
   <path d="M 2015,739 L 1276,0 717,0 1260,543 174,543 174,936 1260,936 717,1481 1274,1481 2015,739 Z"/>
  </g>
  <g id="bullet-char-template-10007" transform="scale(0.00048828125,-0.00048828125)">
   <path d="M 0,-2 C -7,14 -16,27 -25,37 L 356,567 C 262,823 215,952 215,954 215,979 228,992 255,992 264,992 276,990 289,987 310,991 331,999 354,1012 L 381,999 492,748 772,1049 836,1024 860,1049 C 881,1039 901,1025 922,1006 886,937 835,863 770,784 769,783 710,716 594,584 L 774,223 C 774,196 753,168 711,139 L 727,119 C 717,90 699,76 672,76 641,76 570,178 457,381 L 164,-76 C 142,-110 111,-127 72,-127 30,-127 9,-110 8,-76 1,-67 -2,-52 -2,-32 -2,-23 -1,-13 0,-2 Z"/>
  </g>
  <g id="bullet-char-template-10004" transform="scale(0.00048828125,-0.00048828125)">
   <path d="M 285,-33 C 182,-33 111,30 74,156 52,228 41,333 41,471 41,549 55,616 82,672 116,743 169,778 240,778 293,778 328,747 346,684 L 369,508 C 377,444 397,411 428,410 L 1163,1116 C 1174,1127 1196,1133 1229,1133 1271,1133 1292,1118 1292,1087 L 1292,965 C 1292,929 1282,901 1262,881 L 442,47 C 390,-6 338,-33 285,-33 Z"/>
  </g>
  <g id="bullet-char-template-9679" transform="scale(0.00048828125,-0.00048828125)">
   <path d="M 813,0 C 632,0 489,54 383,161 276,268 223,411 223,592 223,773 276,916 383,1023 489,1130 632,1184 813,1184 992,1184 1136,1130 1245,1023 1353,916 1407,772 1407,592 1407,412 1353,268 1245,161 1136,54 992,0 813,0 Z"/>
  </g>
  <g id="bullet-char-template-8226" transform="scale(0.00048828125,-0.00048828125)">
   <path d="M 346,457 C 273,457 209,483 155,535 101,586 74,649 74,723 74,796 101,859 155,911 209,963 273,989 346,989 419,989 480,963 531,910 582,859 608,796 608,723 608,648 583,586 532,535 482,483 420,457 346,457 Z"/>
  </g>
  <g id="bullet-char-template-8211" transform="scale(0.00048828125,-0.00048828125)">
   <path d="M -4,459 L 1135,459 1135,606 -4,606 -4,459 Z"/>
  </g>
  <g id="bullet-char-template-61548" transform="scale(0.00048828125,-0.00048828125)">
   <path d="M 173,740 C 173,903 231,1043 346,1159 462,1274 601,1332 765,1332 928,1332 1067,1274 1183,1159 1299,1043 1357,903 1357,740 1357,577 1299,437 1183,322 1067,206 928,148 765,148 601,148 462,206 346,322 231,437 173,577 173,740 Z"/>
  </g>
 </defs>
 <g>
  <g id="id2" class="Master_Slide">
   <g id="bg-id2" class="Background"/>
   <g id="bo-id2" class="BackgroundObjects"/>
  </g>
 </g>
 <g class="SlideGroup">
  <g>
   <g id="container-id1">
    <g id="id1" class="Slide" clip-path="url(#presentation_clip_path)">
     <g class="Page">
      <g class="Graphic">
       <g id="id3">
        <rect class="BoundingBox" stroke="none" fill="none" x="100" y="0" width="2514" height="2716"/>
        <defs>
         <clipPath id="clip_path_1" clipPathUnits="userSpaceOnUse">
          <path d="M 100,0 L 2613,0 2613,2715 100,2715 100,0 Z"/>
         </clipPath>
        </defs>
        <g clip-path="url(#clip_path_1)"/>
        <defs>
         <clipPath id="clip_path_2" clipPathUnits="userSpaceOnUse">
          <path d="M 100,0 L 2613,0 2613,2715 100,2715 100,0 Z"/>
         </clipPath>
        </defs>
        <g clip-path="url(#clip_path_2)">
         <path fill="rgb(74,169,105)" stroke="none" d="M 1334,812 L 1807,539 2284,814 2284,1902 1811,2178 1336,1902 859,2177 389,1906 387,811 863,536 1334,812 Z"/>
         <path fill="rgb(74,169,105)" stroke="none" d="M 834,1605 L 856,2176 1343,1896 834,1605 Z"/>
         <path fill="rgb(22,108,61)" stroke="none" d="M 1804,1588 L 1804,2176 1329,1901 1804,1588 Z"/>
         <path fill="rgb(191,239,211)" stroke="none" d="M 1336,1355 L 2284,808 2284,1897 1804,2176 1804,1629 1334,1901 1336,1355 Z"/>
         <path fill="rgb(22,108,61)" stroke="none" d="M 1336,1355 L 385,808 385,1897 858,2173 862,1629 1336,1908 1336,1355 Z"/>
         <path fill="rgb(22,108,61)" stroke="none" d="M 1804,540 L 1804,540 1099,947 1096,949 393,1355 392,1355 389,1357 388,1358 388,1358 387,1359 392,1361 1094,1767 1097,1769 1798,2174 1803,2177 1804,2177 1805,2177 1805,2176 1805,2172 1804,2175 1807,1358 1807,1355 1809,549 1809,543 1808,540 1807,538 1807,538 1804,539 1804,540 Z M 1806,544 L 1804,1355 1804,1358 1802,2167 1802,2173 1802,2173 1098,1766 1096,1764 393,1358 399,1355 1098,951 1100,950 1801,545 1806,542 1806,542 1806,544 1806,544 Z"/>
         <path fill="rgb(22,108,61)" stroke="none" d="M 861,539 L 861,544 859,1355 859,1358 857,2167 857,2173 858,2175 859,2177 861,2176 862,2175 1568,1767 1571,1766 2276,1359 2276,1359 2276,1358 2277,1358 2278,1357 2277,1355 2272,1352 1572,947 1569,946 871,542 866,539 861,539 861,539 Z M 1568,949 L 1570,950 2271,1355 2273,1356 2270,1358 1569,1763 1567,1765 864,2171 860,2173 860,2173 860,2171 862,1359 862,1355 864,547 864,542 865,542 865,543 1568,949 1568,949 Z"/>
         <path fill="rgb(22,108,61)" stroke="none" d="M 1333,2456 L 1331,2455 382,1907 382,808 385,807 1333,259 2284,808 2284,1907 2282,1908 1333,2456 Z M 392,1901 L 1333,2445 2275,1901 2275,814 1333,270 392,814 392,1901 Z"/>
         <path fill="rgb(22,108,61)" stroke="none" d="M 1332,814 L 1335,814 1335,1905 1332,1905 1332,814 Z"/>
         <path fill="rgb(22,108,61)" stroke="none" d="M 863,1084 L 865,1081 1804,1629 1802,1632 863,1084 Z"/>
         <path fill="rgb(22,108,61)" stroke="none" d="M 859,1629 L 1805,1081 1807,1084 861,1632 859,1629 Z"/>
         <path fill="rgb(22,108,61)" stroke="none" d="M 1332,264 L 1335,264 1335,814 1332,814 1332,264 Z"/>
         <path fill="rgb(22,108,61)" stroke="none" d="M 386,812 L 388,810 864,1081 863,1084 386,812 Z"/>
         <path fill="rgb(22,108,61)" stroke="none" d="M 1806,1081 L 2279,812 2280,815 1807,1084 1806,1081 Z"/>
         <path fill="rgb(22,108,61)" stroke="none" d="M 1802,1632 L 1804,1629 2281,1903 2279,1905 1802,1632 Z"/>
         <path fill="rgb(22,108,61)" stroke="none" d="M 1332,1905 L 1335,1905 1335,2451 1332,2451 1332,1905 Z"/>
         <path fill="rgb(22,108,61)" stroke="none" d="M 386,1903 L 859,1629 861,1632 388,1906 386,1903 Z"/>
         <path fill="rgb(22,108,61)" stroke="none" d="M 1373,40 C 1373,47 1371,53 1368,59 1364,65 1359,70 1353,74 1347,77 1340,79 1333,79 1326,79 1320,77 1314,74 1308,70 1303,65 1299,59 1296,53 1294,47 1294,40 1294,33 1296,26 1299,20 1303,14 1308,9 1314,5 1320,2 1326,0 1333,0 1340,0 1347,2 1353,5 1359,9 1364,14 1368,20 1371,26 1373,33 1373,40 L 1373,40 Z"/>
         <path fill="rgb(22,108,61)" stroke="none" d="M 2514,692 C 2514,699 2512,706 2508,712 2505,718 2500,723 2494,727 2488,730 2481,732 2474,732 2467,732 2460,730 2454,727 2448,723 2443,718 2440,712 2436,706 2434,699 2434,692 2434,685 2436,679 2440,673 2443,666 2448,661 2454,658 2460,655 2467,653 2474,653 2481,653 2488,655 2494,658 2500,661 2505,666 2508,673 2512,679 2514,685 2514,692 L 2514,692 Z"/>
         <path fill="rgb(22,108,61)" stroke="none" d="M 2502,1988 C 2507,1993 2510,1999 2512,2005 2514,2012 2514,2019 2512,2026 2510,2033 2507,2039 2502,2044 2497,2049 2491,2052 2484,2054 2478,2056 2470,2056 2464,2054 2457,2052 2451,2049 2446,2044 2441,2039 2438,2033 2436,2026 2434,2019 2434,2012 2436,2005 2438,1999 2441,1993 2446,1988 2451,1983 2457,1979 2464,1978 2470,1976 2478,1976 2484,1978 2491,1979 2497,1983 2502,1988 L 2502,1988 Z"/>
         <path fill="rgb(22,108,61)" stroke="none" d="M 199,1977 C 206,1978 212,1981 218,1985 223,1990 227,1995 230,2002 232,2008 233,2015 232,2022 231,2029 228,2035 223,2041 219,2046 213,2050 207,2053 200,2055 193,2056 187,2055 180,2054 173,2051 168,2046 162,2042 158,2036 156,2030 153,2023 153,2016 154,2009 155,2003 158,1996 162,1991 167,1985 172,1981 179,1979 185,1976 192,1976 199,1977 L 199,1977 Z"/>
         <path fill="rgb(22,108,61)" stroke="none" d="M 199,659 C 206,661 212,663 217,668 223,672 227,678 229,684 232,691 233,698 231,705 230,712 227,718 223,724 219,729 213,733 206,736 200,738 193,739 186,738 179,736 173,734 167,729 162,725 158,719 155,713 153,706 152,699 153,692 154,685 157,679 162,674 166,668 172,664 178,662 185,659 192,658 199,659 L 199,659 Z"/>
         <path fill="rgb(22,108,61)" stroke="none" d="M 1370,2660 C 1373,2667 1374,2674 1373,2680 1372,2687 1369,2694 1365,2699 1361,2705 1355,2709 1349,2712 1342,2714 1335,2715 1328,2714 1321,2714 1315,2711 1309,2707 1304,2702 1300,2697 1297,2690 1294,2684 1293,2677 1294,2670 1295,2663 1298,2657 1302,2651 1306,2646 1312,2641 1318,2639 1325,2636 1332,2635 1339,2636 1346,2637 1352,2640 1358,2644 1363,2648 1367,2654 1370,2660 L 1370,2660 Z"/>
         <path fill="rgb(22,108,61)" stroke="none" d="M 1333,2690 L 179,2024 179,691 186,687 1333,24 1340,28 2488,691 2488,2024 2481,2028 1333,2690 Z M 206,2009 L 1333,2660 2461,2009 2461,706 1333,55 206,706 206,2009 Z"/>
         <path fill="rgb(22,108,61)" stroke="none" d="M 1332,40 L 1335,40 1335,2675 1332,2675 1332,40 Z"/>
         <path fill="rgb(22,108,61)" stroke="none" d="M 192,2014 L 2474,698 2475,701 193,2017 192,2014 Z"/>
         <path fill="rgb(22,108,61)" stroke="none" d="M 191,700 L 193,697 2475,2014 2473,2017 191,700 Z"/>
         <path fill="rgb(74,169,105)" stroke="none" d="M 4214,1376 L 4214,1762 4093,1762 4093,1390 C 4093,1259 4030,1194 3920,1194 3798,1194 3719,1271 3719,1417 L 3719,1762 3597,1762 3597,1390 C 3597,1259 3534,1194 3424,1194 3303,1194 3223,1271 3223,1417 L 3223,1762 3102,1762 3102,1092 3218,1092 3218,1192 C 3266,1124 3348,1086 3449,1086 3550,1086 3638,1126 3682,1210 3732,1134 3826,1086 3940,1086 4103,1086 4214,1179 4214,1377 L 4214,1376 Z"/>
         <path fill="rgb(74,169,105)" stroke="none" d="M 5045,1467 L 5044,1467 C 5044,1467 5044,1467 5044,1467 L 5045,1467 Z M 4501,1467 C 4516,1585 4611,1663 4744,1663 4822,1663 4888,1637 4937,1582 L 5004,1661 C 4943,1732 4851,1770 4740,1770 4524,1770 4380,1627 4380,1427 4380,1227 4522,1086 4716,1086 4909,1086 5047,1225 5047,1431 5047,1441 5046,1456 5044,1467 L 4501,1467 Z M 4931,1380 C 4918,1268 4833,1188 4716,1188 4598,1188 4514,1266 4501,1380 L 4931,1380 Z"/>
         <path fill="rgb(74,169,105)" stroke="none" d="M 5592,1723 C 5555,1754 5500,1770 5445,1770 5310,1770 5233,1695 5233,1560 L 5233,1192 5119,1192 5119,1092 5233,1092 5233,945 5354,945 5354,1092 5546,1092 5546,1192 5354,1192 5354,1555 C 5354,1627 5392,1667 5459,1667 5495,1667 5529,1656 5554,1636 L 5592,1723 Z"/>
         <path fill="rgb(74,169,105)" stroke="none" d="M 6269,1357 L 6269,1762 6154,1762 6154,1674 C 6114,1734 6039,1770 5934,1770 5783,1770 5687,1689 5687,1572 5687,1465 5756,1376 5956,1376 L 6148,1376 6148,1352 C 6148,1250 6089,1191 5968,1191 5889,1191 5808,1218 5756,1263 L 5706,1172 C 5775,1116 5875,1086 5982,1086 6166,1086 6269,1174 6269,1357 L 6269,1357 Z M 6148,1557 L 6148,1464 5961,1464 C 5841,1464 5807,1510 5807,1567 5807,1634 5862,1676 5955,1676 6047,1676 6118,1634 6148,1557 L 6148,1557 Z"/>
         <path fill="rgb(74,169,105)" stroke="none" d="M 6871,1723 C 6834,1754 6779,1770 6724,1770 6589,1770 6512,1695 6512,1560 L 6512,1192 6398,1192 6398,1092 6512,1092 6512,945 6633,945 6633,1092 6825,1092 6825,1192 6633,1192 6633,1555 C 6633,1627 6671,1667 6738,1667 6774,1667 6808,1656 6833,1636 L 6871,1723 Z"/>
         <path fill="rgb(74,169,105)" stroke="none" d="M 7378,1203 C 7368,1202 7359,1202 7350,1202 7220,1202 7139,1282 7139,1428 L 7139,1762 7017,1762 7017,1092 7134,1092 7134,1205 C 7177,1126 7260,1086 7378,1086 L 7378,1203 Z"/>
         <path fill="rgb(74,169,105)" stroke="none" d="M 7808,1086 C 8009,1086 8155,1227 8155,1427 8155,1627 8008,1770 7808,1770 7607,1770 7459,1627 7459,1427 7459,1227 7607,1086 7808,1086 Z M 8032,1427 C 8032,1284 7936,1192 7808,1192 7679,1192 7581,1284 7581,1427 7581,1570 7679,1663 7808,1663 7936,1663 8032,1570 8032,1427 Z"/>
         <path fill="rgb(74,169,105)" stroke="none" d="M 8959,1376 L 8959,1762 8838,1762 8838,1390 C 8838,1259 8772,1194 8657,1194 8528,1194 8445,1271 8445,1417 L 8445,1762 8323,1762 8323,1092 8440,1092 8440,1193 C 8489,1125 8575,1086 8681,1086 8844,1086 8959,1179 8959,1376 L 8959,1376 Z"/>
        </g>
        <g clip-path="url(#clip_path_1)"/>
       </g>
      </g>
     </g>
    </g>
   </g>
  </g>
 </g>
</svg>